<svg width="62" height="64" viewBox="0 0 62 64" fill="none" xmlns="http://www.w3.org/2000/svg">
<path d="M59.5771 7.72786H51.5231C51.0284 5.5341 49.802 3.57392 48.0456 2.1695C46.2892 0.765084 44.1073 0 41.8584 0C39.6095 0 37.4276 0.765084 35.6712 2.1695C33.9148 3.57392 32.6884 5.5341 32.1937 7.72786H2.20656C1.62134 7.72786 1.0601 7.96034 0.646286 8.37415C0.232476 8.78796 0 9.3492 0 9.93442C0 10.5196 0.232476 11.0809 0.646286 11.4947C1.0601 11.9085 1.62134 12.141 2.20656 12.141H32.1937C32.6884 14.3347 33.9148 16.2949 35.6712 17.6993C37.4276 19.1038 39.6095 19.8688 41.8584 19.8688C44.1073 19.8688 46.2892 19.1038 48.0456 17.6993C49.802 16.2949 51.0284 14.3347 51.5231 12.141H59.5771C60.1623 12.141 60.7235 11.9085 61.1373 11.4947C61.5511 11.0809 61.7836 10.5196 61.7836 9.93442C61.7836 9.3492 61.5511 8.78796 61.1373 8.37415C60.7235 7.96034 60.1623 7.72786 59.5771 7.72786ZM41.9246 15.4508C40.8308 15.4639 39.7579 15.1516 38.842 14.5535C37.9262 13.9554 37.2089 13.0985 36.7812 12.0917C36.3535 11.085 36.2347 9.97378 36.4401 8.89938C36.6454 7.82498 37.1655 6.83587 37.9343 6.05775C38.703 5.27964 39.6858 4.74764 40.7576 4.52937C41.8295 4.31109 42.942 4.4164 43.9539 4.83191C44.9657 5.24742 45.8312 5.95436 46.4403 6.86291C47.0495 7.77145 47.3747 8.84058 47.3748 9.93442C47.3749 11.3861 46.8028 12.7792 45.7826 13.8119C44.7623 14.8445 43.3761 15.4334 41.9246 15.4508V15.4508Z" fill="white"/>
<path d="M59.5771 30.0582H29.5899C29.0952 27.8645 27.8688 25.9043 26.1124 24.4999C24.356 23.0955 22.1741 22.3304 19.9252 22.3304C17.6764 22.3304 15.4944 23.0955 13.738 24.4999C11.9816 25.9043 10.7552 27.8645 10.2605 30.0582H2.20656C1.62134 30.0582 1.0601 30.2907 0.646286 30.7045C0.232476 31.1183 0 31.6796 0 32.2648C0 32.85 0.232476 33.4113 0.646286 33.8251C1.0601 34.2389 1.62134 34.4713 2.20656 34.4713H10.2605C10.7552 36.6651 11.9816 38.6253 13.738 40.0297C15.4944 41.4341 17.6764 42.1992 19.9252 42.1992C22.1741 42.1992 24.356 41.4341 26.1124 40.0297C27.8688 38.6253 29.0952 36.6651 29.5899 34.4713H59.5771C60.1623 34.4713 60.7235 34.2389 61.1373 33.8251C61.5511 33.4113 61.7836 32.85 61.7836 32.2648C61.7836 31.6796 61.5511 31.1183 61.1373 30.7045C60.7235 30.2907 60.1623 30.0582 59.5771 30.0582V30.0582ZM19.859 37.7812C18.768 37.7812 17.7014 37.4577 16.7943 36.8515C15.8871 36.2454 15.1801 35.3838 14.7625 34.3758C14.345 33.3678 14.2358 32.2587 14.4486 31.1886C14.6615 30.1185 15.1869 29.1356 15.9583 28.3641C16.7298 27.5926 17.7127 27.0672 18.7828 26.8544C19.8529 26.6415 20.9621 26.7508 21.9701 27.1683C22.978 27.5858 23.8396 28.2929 24.4457 29.2C25.0519 30.1072 25.3754 31.1738 25.3754 32.2648C25.3754 32.9892 25.2327 33.7065 24.9555 34.3758C24.6783 35.0451 24.2719 35.6532 23.7597 36.1655C23.2475 36.6777 22.6393 37.084 21.9701 37.3613C21.3008 37.6385 20.5834 37.7812 19.859 37.7812V37.7812Z" fill="white"/>
<path d="M59.5771 51.859H51.5231C51.0284 49.6653 49.802 47.7051 48.0456 46.3007C46.2892 44.8962 44.1073 44.1312 41.8584 44.1312C39.6095 44.1312 37.4276 44.8962 35.6712 46.3007C33.9148 47.7051 32.6884 49.6653 32.1937 51.859H2.20656C1.62134 51.859 1.0601 52.0915 0.646286 52.5053C0.232476 52.9191 0 53.4804 0 54.0656C0 54.6508 0.232476 55.212 0.646286 55.6259C1.0601 56.0397 1.62134 56.2721 2.20656 56.2721H32.1937C32.6884 58.4659 33.9148 60.4261 35.6712 61.8305C37.4276 63.2349 39.6095 64 41.8584 64C44.1073 64 46.2892 63.2349 48.0456 61.8305C49.802 60.4261 51.0284 58.4659 51.5231 56.2721H59.5771C60.1623 56.2721 60.7235 56.0397 61.1373 55.6259C61.5511 55.212 61.7836 54.6508 61.7836 54.0656C61.7836 53.4804 61.5511 52.9191 61.1373 52.5053C60.7235 52.0915 60.1623 51.859 59.5771 51.859ZM41.9246 59.582C40.8336 59.582 39.767 59.2584 38.8599 58.6523C37.9527 58.0461 37.2456 57.1846 36.8281 56.1766C36.4106 55.1686 36.3014 54.0595 36.5142 52.9894C36.7271 51.9193 37.2524 50.9364 38.0239 50.1649C38.7954 49.3934 39.7783 48.868 40.8484 48.6552C41.9185 48.4423 43.0276 48.5516 44.0356 48.9691C45.0436 49.3866 45.9052 50.0937 46.5113 51.0008C47.1175 51.908 47.441 52.9745 47.441 54.0656C47.441 55.5286 46.8598 56.9317 45.8253 57.9663C44.7908 59.0008 43.3876 59.582 41.9246 59.582Z" fill="white"/>
</svg>
