<svg width="58" height="64" viewBox="0 0 58 64" fill="none" xmlns="http://www.w3.org/2000/svg">
<path d="M12.1214 61.8571L12.1214 2.14285H16.6929L16.6929 61.8571H12.1214Z" fill="white"/>
<path d="M14.4071 -2.86102e-06C15.6695 -2.86102e-06 16.6929 1.02335 16.6929 2.28571C16.6929 3.54808 15.6695 4.57143 14.4071 4.57143C13.1448 4.57143 12.1214 3.54808 12.1214 2.28571C12.1214 1.02335 13.1448 -2.86102e-06 14.4071 -2.86102e-06Z" fill="white"/>
<path d="M14.4071 59.4286C15.6695 59.4286 16.6929 60.4519 16.6929 61.7143C16.6929 62.9767 15.6695 64 14.4071 64C13.1448 64 12.1214 62.9767 12.1214 61.7143C12.1214 60.4519 13.1448 59.4286 14.4071 59.4286Z" fill="white"/>
<path d="M24.9123 16.0266L12.7905 3.90478L16.023 0.672291L28.1448 12.7941L24.9123 16.0266Z" fill="white"/>
<path d="M12.7905 0.672291C13.6831 -0.220336 15.1304 -0.220336 16.023 0.672291C16.9156 1.56492 16.9156 3.01215 16.023 3.90478C15.1304 4.79741 13.6831 4.79741 12.7905 3.90478C11.8979 3.01215 11.8979 1.56492 12.7905 0.672291Z" fill="white"/>
<path d="M24.9123 12.7941C25.805 11.9015 27.2522 11.9015 28.1448 12.7941C29.0374 13.6867 29.0374 15.134 28.1448 16.0266C27.2522 16.9192 25.805 16.9192 24.9123 16.0266C24.0197 15.134 24.0197 13.6867 24.9123 12.7941Z" fill="white"/>
<path d="M3.90196 16.0266L16.0238 3.90478L12.7913 0.672291L0.66947 12.7941L3.90196 16.0266Z" fill="white"/>
<path d="M16.0238 0.672291C15.1312 -0.220336 13.6839 -0.220336 12.7913 0.672291C11.8987 1.56492 11.8987 3.01215 12.7913 3.90478C13.6839 4.79741 15.1312 4.79741 16.0238 3.90478C16.9164 3.01215 16.9164 1.56492 16.0238 0.672291Z" fill="white"/>
<path d="M3.90196 12.7941C3.00933 11.9015 1.5621 11.9015 0.66947 12.7941C-0.223157 13.6867 -0.223157 15.134 0.66947 16.0266C1.5621 16.9192 3.00933 16.9192 3.90196 16.0266C4.79459 15.134 4.79459 13.6867 3.90196 12.7941Z" fill="white"/>
<path d="M40.9572 2.14286V61.8571H45.5286V2.14286H40.9572Z" fill="white"/>
<path d="M43.2429 64C44.5052 64 45.5286 62.9767 45.5286 61.7143C45.5286 60.4519 44.5052 59.4286 43.2429 59.4286C41.9805 59.4286 40.9572 60.4519 40.9572 61.7143C40.9572 62.9767 41.9805 64 43.2429 64Z" fill="white"/>
<path d="M43.2429 4.57143C44.5052 4.57143 45.5286 3.54808 45.5286 2.28571C45.5286 1.02335 44.5052 0 43.2429 0C41.9805 0 40.9572 1.02335 40.9572 2.28571C40.9572 3.54808 41.9805 4.57143 43.2429 4.57143Z" fill="white"/>
<path d="M53.7481 47.9734L41.6262 60.0952L44.8587 63.3277L56.9805 51.2059L53.7481 47.9734Z" fill="white"/>
<path d="M41.6262 63.3277C42.5188 64.2203 43.9661 64.2203 44.8587 63.3277C45.7513 62.4351 45.7513 60.9878 44.8587 60.0952C43.9661 59.2026 42.5188 59.2026 41.6262 60.0952C40.7336 60.9878 40.7336 62.4351 41.6262 63.3277Z" fill="white"/>
<path d="M53.7481 51.2059C54.6407 52.0985 56.0879 52.0985 56.9805 51.2059C57.8732 50.3133 57.8732 48.866 56.9805 47.9734C56.0879 47.0808 54.6407 47.0808 53.7481 47.9734C52.8554 48.866 52.8554 50.3133 53.7481 51.2059Z" fill="white"/>
<path d="M32.7377 47.9734L44.8595 60.0952L41.627 63.3277L29.5052 51.2059L32.7377 47.9734Z" fill="white"/>
<path d="M44.8595 63.3277C43.9669 64.2203 42.5197 64.2203 41.627 63.3277C40.7344 62.4351 40.7344 60.9878 41.627 60.0952C42.5197 59.2026 43.9669 59.2026 44.8595 60.0952C45.7521 60.9878 45.7521 62.4351 44.8595 63.3277Z" fill="white"/>
<path d="M32.7377 51.2059C31.8451 52.0985 30.3978 52.0985 29.5052 51.2059C28.6126 50.3133 28.6126 48.866 29.5052 47.9734C30.3978 47.0808 31.8451 47.0808 32.7377 47.9734C33.6303 48.866 33.6303 50.3133 32.7377 51.2059Z" fill="white"/>
</svg>
